<svg width="830" height="890" viewBox="0 0 1080 1080" xmlns="http://www.w3.org/2000/svg"><path d="M865.956170038261,592.9999999999999C881.1136654954853,691.8513735897355,930.629683581959,830.1261500301982,895.6645374547718,912.4634950854331C860.6993913275846,994.800840140668,758.8593828509337,1089.1601946526223,656.1652932751384,1087.0240703314093C553.4712036993432,1084.8879460101964,374.5839865312902,959.7239983390607,279.5000000000001,899.6467491581552C184.41601346871005,839.5694999772497,123.96781173949847,807.0951293133314,85.66137408739814,726.5605752459762C47.35493643529781,646.026021178621,1.4462395267988413,513.9767434594917,49.66137408739809,416.43942475402395C97.87650864799733,318.9021060485562,273.20152825303694,204.74724552740872,374.95218145099363,141.33666301316987C476.70283464895033,77.92608049893101,588.5373960650661,6.306164579615871,660.1652932751382,35.975929668590766C731.7931904852103,65.64569475756566,770.4210852509057,226.5179084917844,804.7195647114261,319.35525354701923C839.0180441719465,412.19259860225407,850.7986745810367,494.1486264102642,865.956170038261,592.9999999999999C881.1136654954853,691.8513735897355,930.629683581959,830.1261500301982,895.6645374547718,912.4634950854331" fill="#fff1da"/></svg>